<svg xmlns="http://www.w3.org/2000/svg" xmlns:xlink="http://www.w3.org/1999/xlink" width="147.039" height="139" viewBox="0 0 147.039 139">
  <defs>
    <linearGradient id="linear-gradient" x1="0.922" y1="0.586" x2="0.298" y2="0.647" gradientUnits="objectBoundingBox">
      <stop offset="0" stop-color="#a80e00"/>
      <stop offset="1" stop-color="#530700"/>
    </linearGradient>
    <linearGradient id="linear-gradient-2" x1="0.895" y1="0.743" x2="0.086" y2="0.116" gradientUnits="objectBoundingBox">
      <stop offset="0" stop-color="#ff2121"/>
      <stop offset="1" stop-color="#fa6a00"/>
    </linearGradient>
  </defs>
  <g id="Grupo_43" data-name="Grupo 43" transform="translate(1517 -4213)">
    <g id="Grupo_41" data-name="Grupo 41" transform="translate(-1517 4213)">
      <path id="Sustracción_24" data-name="Sustracción 24" d="M.987,29.24a8.13,8.13,0,0,1-2.338-.35l-.023-.007-.011,0A69.207,69.207,0,0,0,23.2,23.446,69.478,69.478,0,0,0,45.365,8.5a70.455,70.455,0,0,0,7.249-8.5l7.808.046A7.74,7.74,0,0,1,62.631.4a8.5,8.5,0,0,1,2.023.923,7.331,7.331,0,0,1,1.621,1.363,5.083,5.083,0,0,1,1,1.668l6.888,19.8A3.5,3.5,0,0,1,74.34,25.9a2.9,2.9,0,0,1-.68,1.437,3.637,3.637,0,0,1-1.415.979,5.524,5.524,0,0,1-2.025.373L1.046,29.24Z" transform="translate(72.655 109.759)" fill="url(#linear-gradient)"/>
      <path id="Sustracción_18" data-name="Sustracción 18" d="M69.5,139A69.518,69.518,0,0,1,42.447,5.462,69.518,69.518,0,0,1,96.552,133.538,69.066,69.066,0,0,1,69.5,139Zm0-76.816A7.316,7.316,0,1,0,76.816,69.5,7.324,7.324,0,0,0,69.5,62.184Z" fill="url(#linear-gradient-2)"/>
    </g>
    <circle id="Elipse_23" data-name="Elipse 23" cx="8.562" cy="8.562" r="8.562" transform="translate(-1455.731 4274.159)" fill="#5b0800"/>
    <path id="Polígono_8" data-name="Polígono 8" d="M17.263,2.718a2,2,0,0,1,3.393,0l15.353,24.6a2,2,0,0,1-1.7,3.059H3.606a2,2,0,0,1-1.7-3.059Z" transform="translate(-1427.867 4263.836) rotate(90)" fill="#fff"/>
    <g id="Grupo_53" data-name="Grupo 53" transform="translate(-1502.01 4225.624)">
      <circle id="Elipse_4" data-name="Elipse 4" cx="13.031" cy="13.031" r="13.031" transform="translate(41.7)" fill="#5b0800"/>
      <circle id="Elipse_5" data-name="Elipse 5" cx="13.031" cy="13.031" r="13.031" transform="translate(83.4 32.578)" fill="#5b0800"/>
      <circle id="Elipse_6" data-name="Elipse 6" cx="13.031" cy="13.031" r="13.031" transform="translate(0 32.578)" fill="#5b0800"/>
      <circle id="Elipse_7" data-name="Elipse 7" cx="13.031" cy="13.031" r="13.031" transform="translate(18.244 80.793)" fill="#5b0800"/>
      <circle id="Elipse_8" data-name="Elipse 8" cx="13.031" cy="13.031" r="13.031" transform="translate(66.459 80.793)" fill="#5b0800"/>
    </g>
  </g>
</svg>
